<svg height="512pt" viewBox="0 -20 512 512" width="512pt" xmlns="http://www.w3.org/2000/svg"><path d="m10 10h206.128906c22.019532 0 39.871094 17.851562 39.871094 39.871094v412.128906c.070312-22.070312-17.800781-40-39.871094-40h-206.128906zm0 0" fill="#fff"/><path d="m502 10h-206.128906c-22.019532 0-39.871094 17.851562-39.871094 39.871094v412.128906c-.070312-22.070312 17.800781-40 39.871094-40h206.128906zm0 0" fill="#feda9b"/><path d="m10 422h492v40h-492zm0 0" fill="#ffc66c"/><path d="m59 174.136719h147.082031v191.871093h-147.082031zm0 0" fill="#ff5d5d"/><path d="m303 62.25h145v127.898438h-145zm0 0" fill="#fff"/><path d="m325.734375 190.148438h122.265625v-49.515626l-36.375-36.375zm0 0" fill="#62cd4d"/><path d="m360.25 132.757812-57.25 57.25v.140626h114.640625zm0 0" fill="#a0e557"/><path d="m502 0h-206.125c-16.285156 0-30.765625 7.84375-39.875 19.953125-9.109375-12.109375-23.589844-19.953125-39.875-19.953125h-206.125c-5.523438 0-10 4.476562-10 10v452c0 5.523438 4.476562 10 10 10h245.984375.015625.015625 77.421875c5.523438 0 10-4.476562 10-10s-4.476562-10-10-10h-65.773438c1.457032-4.171875 3.839844-7.996094 7.050782-11.21875 5.644531-5.664062 13.160156-8.78125 21.15625-8.78125h196.128906v20h-78.5625c-5.523438 0-10 4.476562-10 10s4.476562 10 10 10h88.5625c5.523438 0 10-4.476562 10-10v-452c0-5.523438-4.476562-10-10-10zm-482 20h196.125c16.472656 0 29.875 13.402344 29.875 29.871094v372.054687c-8.574219-6.441406-18.953125-9.925781-29.871094-9.925781h-196.128906zm0 412h196.128906c7.996094 0 15.507813 3.117188 21.15625 8.78125 3.210938 3.222656 5.59375 7.046875 7.046875 11.21875h-224.332031zm246-10.074219v-372.054687c0-16.46875 13.402344-29.871094 29.875-29.871094h196.125v392h-196.128906c-10.917969 0-21.296875 3.484375-29.871094 9.925781zm0 0"/><path d="m206.082031 164.136719h-147.082031c-5.523438 0-10 4.476562-10 10v191.875c0 5.519531 4.476562 10 10 10h147.082031c5.523438 0 10-4.480469 10-10v-191.875c0-5.523438-4.476562-10-10-10zm-10 191.875h-127.082031v-171.875h127.082031zm0 0"/><path d="m448 236.011719h-145c-5.523438 0-10 4.476562-10 10 0 5.519531 4.476562 10 10 10h145c5.523438 0 10-4.480469 10-10 0-5.523438-4.476562-10-10-10zm0 0"/><path d="m448 296.011719h-145c-5.523438 0-10 4.476562-10 10 0 5.519531 4.476562 10 10 10h145c5.523438 0 10-4.480469 10-10 0-5.523438-4.476562-10-10-10zm0 0"/><path d="m448 356.011719h-145c-5.523438 0-10 4.476562-10 10 0 5.519531 4.476562 10 10 10h145c5.523438 0 10-4.480469 10-10 0-5.523438-4.476562-10-10-10zm0 0"/><path d="m108.6875 315.550781c5.234375 1.765625 10.90625-1.054687 12.664062-6.289062l.738282-2.1875h28.023437l.734375 2.1875c1.40625 4.179687 5.300782 6.8125 9.476563 6.8125 1.058593 0 2.132812-.167969 3.191406-.523438 5.234375-1.761719 8.050781-7.433593 6.289063-12.667969l-24.226563-72c-1.367187-4.066406-5.183594-6.808593-9.476563-6.808593-4.292968 0-8.109374 2.738281-9.480468 6.808593l-24.222656 72c-1.761719 5.234376 1.050781 10.90625 6.289062 12.667969zm27.414062-50.117187 7.28125 21.640625h-14.5625zm0 0"/><path d="m206.082031 116.136719h-107.082031c-5.523438 0-10 4.476562-10 10 0 5.523437 4.476562 10 10 10h107.082031c5.523438 0 10-4.476563 10-10 0-5.523438-4.476562-10-10-10zm0 0"/><path d="m59 136.140625c2.628906 0 5.210938-1.070313 7.070312-2.929687 1.859376-1.859376 2.929688-4.441407 2.929688-7.070313 0-2.640625-1.070312-5.210937-2.929688-7.082031-1.859374-1.859375-4.441406-2.917969-7.070312-2.917969s-5.210938 1.058594-7.070312 2.917969c-1.859376 1.863281-2.929688 4.441406-2.929688 7.082031 0 2.628906 1.070312 5.210937 2.929688 7.070313 1.859374 1.859374 4.441406 2.929687 7.070312 2.929687zm0 0"/><path d="m61.082031 72.25h145c5.523438 0 10-4.476562 10-10s-4.476562-10-10-10h-145c-5.523437 0-10 4.476562-10 10s4.476563 10 10 10zm0 0"/><path d="m303 200.148438h145c5.523438 0 10-4.476563 10-10v-127.898438c0-5.523438-4.476562-10-10-10h-145c-5.523438 0-10 4.476562-10 10v127.898438c0 5.523437 4.476562 10 10 10zm90.496094-20h-66.492188l33.246094-33.246094zm28.285156 0-35.953125-35.953126 25.796875-25.792968 26.375 26.375v35.371094zm16.21875-107.898438v44.242188l-19.304688-19.304688c-3.90625-3.902344-10.234374-3.902344-14.140624 0l-32.867188 32.867188-4.367188-4.367188c-3.90625-3.902344-10.234374-3.902344-14.140624 0l-40.179688 40.179688v-93.617188zm0 0"/><path d="m375.5 452c-2.628906 0-5.210938 1.070312-7.070312 2.929688-1.859376 1.859374-2.929688 4.441406-2.929688 7.070312s1.070312 5.210938 2.929688 7.070312c1.859374 1.859376 4.441406 2.929688 7.070312 2.929688s5.210938-1.070312 7.070312-2.929688c1.859376-1.859374 2.929688-4.441406 2.929688-7.070312s-1.070312-5.210938-2.929688-7.070312c-1.859374-1.859376-4.441406-2.929688-7.070312-2.929688zm0 0"/></svg>